# xmcd
#
# Track frame offsets:
#	150
#	9350
#	19103
#	29142
#	38697
#	49357
#	59288
#	69511
#	81492
#	92129
#	103018
#	110279
#
# Disc length: 1606 seconds
#
# Revision: 1
# Processed by: cddbd v1.5.2PL0 Copyright (c) Steve Scherf et al.
# Submitted via: audiograbber 1.83.01
#
DISCID=9c06440c
DTITLE=Porter Wagoner - The Bluegrass Story
DYEAR=1965
DGENRE=Country
TTITLE0=Country Music Has Gone To Town
TTITLE1=Blue Moon Of Kentucky
TTITLE2=Will You Be Loving Another Man
TTITLE3=Little Cabin Home On The Hill
TTITLE4=Uncle Pen
TTITLE5=I'll Meet You In Church Sunday Morning
TTITLE6=Howdy Neighbor, Howdy
TTITLE7=Before I Met You
TTITLE8=Cotton Fields
TTITLE9=I Wonder How The Old Folks Are At Home
TTITLE10=Head Over Heals
TTITLE11=A Gathering In The Sky
EXTD=
EXTT0=
EXTT1=
EXTT2=
EXTT3=
EXTT4=
EXTT5=
EXTT6=
EXTT7=
EXTT8=
EXTT9=
EXTT10=
EXTT11=
PLAYORDER=
